<svg width="36" height="17" viewBox="0 0 36 17" fill="none" xmlns="http://www.w3.org/2000/svg">
<path d="M35.3801 9.81951C35.604 10.6549 35.1604 11.4996 34.3895 11.7061C33.6186 11.9127 32.8079 8.88751 33.5789 8.68094C34.3498 8.47436 35.1563 8.98412 35.3801 9.81951Z" fill="url(#paint0_linear_2218_4020)"/>
<path d="M34.3897 11.7061C35.1606 11.4995 35.6042 10.6548 35.3803 9.81946C35.3167 9.58215 35.206 9.37122 35.0625 9.19543L33.2812 9.67272C33.3702 10.6079 33.8883 11.8405 34.3897 11.7061Z" fill="url(#paint1_linear_2218_4020)"/>
<path d="M33.579 8.68094C33.5693 8.68354 33.56 8.68691 33.5508 8.69043L34.3604 11.712C34.3701 11.7104 34.3799 11.7087 34.3896 11.7061C35.1606 11.4996 35.6041 10.6549 35.3802 9.81951C35.1564 8.98412 34.35 8.47436 33.579 8.68094Z" fill="url(#paint2_linear_2218_4020)"/>
<path d="M11.3734 16.1251C13.3382 16.1251 14.931 14.5323 14.931 12.5675C14.931 10.6028 13.3382 9.01001 11.3734 9.01001C9.40868 9.01001 7.81592 10.6028 7.81592 12.5675C7.81592 14.5323 9.40868 16.1251 11.3734 16.1251Z" fill="url(#paint3_linear_2218_4020)"/>
<path d="M7.81592 12.5675C7.81592 14.5323 9.40871 16.1251 11.3734 16.1251C13.3382 16.1251 14.931 14.5323 14.931 12.5675C14.931 12.142 14.856 11.734 14.719 11.3558H8.02784C7.89087 11.734 7.81592 12.142 7.81592 12.5675Z" fill="url(#paint4_linear_2218_4020)"/>
<path d="M8.85773 15.0832C10.247 16.4725 12.4996 16.4725 13.8889 15.0832C15.2782 13.6939 15.2782 11.4413 13.8889 10.052C13.588 9.75115 13.2465 9.51567 12.8822 9.34509L8.15088 14.0764C8.32139 14.4408 8.55686 14.7822 8.85773 15.0832Z" fill="url(#paint5_linear_2218_4020)"/>
<path d="M8.85773 15.0832C10.247 16.4725 12.4996 16.4725 13.8889 15.0832C15.2782 13.6939 15.2782 11.4413 13.8889 10.052C13.588 9.75115 13.2465 9.51567 12.8822 9.34509L8.15088 14.0764C8.32139 14.4408 8.55686 14.7822 8.85773 15.0832Z" fill="url(#paint6_linear_2218_4020)"/>
<path d="M11.3735 14.8604C12.6398 14.8604 13.6663 13.8339 13.6663 12.5675C13.6663 11.3012 12.6398 10.2747 11.3735 10.2747C10.1071 10.2747 9.08057 11.3012 9.08057 12.5675C9.08057 13.8339 10.1071 14.8604 11.3735 14.8604Z" fill="url(#paint7_linear_2218_4020)"/>
<path d="M29.6581 16.1251C31.6229 16.1251 33.2156 14.5323 33.2156 12.5675C33.2156 10.6028 31.6229 9.01001 29.6581 9.01001C27.6933 9.01001 26.1006 10.6028 26.1006 12.5675C26.1006 14.5323 27.6933 16.1251 29.6581 16.1251Z" fill="url(#paint8_linear_2218_4020)"/>
<path d="M26.1006 12.5675C26.1006 14.5323 27.6934 16.1251 29.6581 16.1251C31.6229 16.1251 33.2156 14.5323 33.2156 12.5675C33.2156 12.142 33.1407 11.734 33.0037 11.3558H26.3125C26.1755 11.734 26.1006 12.142 26.1006 12.5675Z" fill="url(#paint9_linear_2218_4020)"/>
<path d="M27.1424 15.0832C28.5317 16.4725 30.7842 16.4725 32.1735 15.0832C33.5628 13.6939 33.5628 11.4413 32.1735 10.052C31.8727 9.75115 31.5312 9.51567 31.1669 9.34509L26.4355 14.0764C26.6061 14.4408 26.8415 14.7822 27.1424 15.0832Z" fill="url(#paint10_linear_2218_4020)"/>
<path d="M27.1424 15.0832C28.5317 16.4725 30.7842 16.4725 32.1735 15.0832C33.5628 13.6939 33.5628 11.4413 32.1735 10.052C31.8727 9.75115 31.5312 9.51567 31.1669 9.34509L26.4355 14.0764C26.6061 14.4408 26.8415 14.7822 27.1424 15.0832Z" fill="url(#paint11_linear_2218_4020)"/>
<path d="M29.6581 14.8604C30.9245 14.8604 31.951 13.8339 31.951 12.5675C31.951 11.3012 30.9245 10.2747 29.6581 10.2747C28.3918 10.2747 27.3652 11.3012 27.3652 12.5675C27.3652 13.8339 28.3918 14.8604 29.6581 14.8604Z" fill="url(#paint12_linear_2218_4020)"/>
<path d="M35.3129 13.0861H0.129395L1.23105 8.14296C1.3856 7.33071 2.09407 6.68595 3.01467 6.52071L3.95418 6.35252C3.95946 6.35175 3.96557 6.35027 3.97085 6.3495C4.66111 6.22146 5.25286 5.78348 5.60744 5.17732C6.40226 3.81804 9.13903 0 11.716 0H20.3809C22.2699 0 24.0338 0.801633 25.1249 2.1382C25.3211 2.37916 25.5173 2.61858 25.725 2.8497C26.6024 3.82936 28.6489 6.01685 29.6165 6.26766L31.9584 6.91573C32.9721 7.1962 33.771 7.97695 34.0749 8.9839L35.3129 13.0861Z" fill="url(#paint13_linear_2218_4020)"/>
<path d="M34.0751 8.9839C33.7713 7.97695 32.9722 7.1962 31.9585 6.91573L29.6166 6.26766C28.6491 6.01685 26.6026 3.82943 25.7251 2.8497C25.5175 2.61858 25.3212 2.37916 25.125 2.1382C24.0339 0.801633 22.27 0 20.3811 0H15.2104C17.0994 0 18.8633 0.801633 19.9544 2.1382C20.1506 2.37916 20.3468 2.61858 20.5545 2.8497C21.4319 3.82936 23.4784 6.01685 24.446 6.26766L26.7879 6.91573C27.8016 7.1962 28.6006 7.97695 28.9044 8.9839L30.1424 13.0861H35.313L34.0751 8.9839Z" fill="url(#paint14_linear_2218_4020)"/>
<path d="M33.0166 8.86489H30.7525C30.5583 8.86489 30.4009 8.70746 30.4009 8.51325C30.4009 8.31905 30.5583 8.16162 30.7525 8.16162H33.0166C33.2108 8.16162 33.3683 8.31905 33.3683 8.51325C33.3683 8.70746 33.2108 8.86489 33.0166 8.86489Z" fill="url(#paint15_linear_2218_4020)"/>
<path d="M33.4009 9.89882H31.1368C30.9426 9.89882 30.7852 9.74139 30.7852 9.54719C30.7852 9.35299 30.9426 9.19556 31.1368 9.19556H33.4009C33.5951 9.19556 33.7526 9.35299 33.7526 9.54719C33.7526 9.74139 33.5951 9.89882 33.4009 9.89882Z" fill="url(#paint16_linear_2218_4020)"/>
<path d="M33.7852 10.9328H31.5211C31.3269 10.9328 31.1694 10.7753 31.1694 10.5811C31.1694 10.3869 31.3269 10.2295 31.5211 10.2295H33.7852C33.9794 10.2295 34.1368 10.3869 34.1368 10.5811C34.1368 10.7753 33.9794 10.9328 33.7852 10.9328Z" fill="url(#paint17_linear_2218_4020)"/>
<path d="M31.9587 6.91569L29.6168 6.26762C28.6492 6.01681 26.6027 3.82939 25.7252 2.84965C25.5176 2.61854 25.3214 2.37912 25.1251 2.13816C24.6434 1.54803 24.0304 1.06245 23.3335 0.703857V5.59451C23.7616 5.93792 24.1533 6.19175 24.4461 6.26762L26.788 6.91569C27.8017 7.19616 28.6007 7.97691 28.9046 8.98386L30.1425 13.0861H35.3131L34.0752 8.98386C33.7713 7.97691 32.9724 7.19616 31.9587 6.91569Z" fill="url(#paint18_linear_2218_4020)"/>
<path d="M1.23105 8.14298L0.129395 13.0862H35.3129L34.075 8.98392C33.7712 7.97697 32.9722 7.19622 31.9585 6.91575L30.6119 6.54309H2.91061C2.04133 6.7368 1.37976 7.36181 1.23105 8.14298Z" fill="url(#paint19_linear_2218_4020)"/>
<path d="M14.2107 8.27854H13.1748C12.8795 8.27854 12.6401 8.0392 12.6401 7.74388C12.6401 7.44857 12.8795 7.20923 13.1748 7.20923H14.2107C14.506 7.20923 14.7454 7.44857 14.7454 7.74388C14.7454 8.03913 14.5059 8.27854 14.2107 8.27854Z" fill="url(#paint20_linear_2218_4020)"/>
<path d="M13.1301 12.0431L14.1732 13.0861H35.3129L34.075 8.9839C33.7712 7.97695 32.9721 7.1962 31.9584 6.91573L29.6165 6.26766C28.649 6.01685 26.6024 3.82943 25.725 2.8497C25.5174 2.61858 25.3211 2.37916 25.1249 2.1382C24.0338 0.801633 22.2699 0 20.381 0H11.7161C10.5744 1.15031 9.93359 2.70527 9.93359 4.32605C9.93359 7.22046 11.0834 9.9964 13.1301 12.0431Z" fill="url(#paint21_linear_2218_4020)"/>
<path d="M30.5935 9.81951C30.8173 10.6549 30.3738 11.4996 29.6029 11.7061C28.8319 11.9127 28.0213 8.88751 28.7923 8.68094C29.5632 8.47436 30.3697 8.98412 30.5935 9.81951Z" fill="url(#paint22_linear_2218_4020)"/>
<path d="M29.603 11.7061C30.374 11.4995 30.8175 10.6548 30.5937 9.81946C30.5301 9.58215 30.4194 9.37122 30.2759 9.19543L28.4946 9.67272C28.5836 10.6079 29.1016 11.8405 29.603 11.7061Z" fill="url(#paint23_linear_2218_4020)"/>
<path d="M28.7924 8.68094C28.7827 8.68354 28.7734 8.68691 28.7642 8.69043L29.5738 11.712C29.5835 11.7104 29.5933 11.7087 29.603 11.7061C30.374 11.4996 30.8175 10.6549 30.5936 9.81951C30.3699 8.98412 29.5634 8.47436 28.7924 8.68094Z" fill="url(#paint24_linear_2218_4020)"/>
<path d="M21.8404 6.39983H12.5107C11.7589 6.39983 11.1494 5.79036 11.1494 5.03858V2.45024C11.1494 1.69846 11.7589 1.08899 12.5107 1.08899H15.3397C16.8524 1.08899 18.2716 1.72068 19.1356 2.77909C19.3204 3.0062 19.5312 3.26376 19.7561 3.5154C20.7047 4.57234 21.4558 5.32054 22.0504 5.85203C22.2649 6.04356 22.1284 6.39983 21.8404 6.39983Z" fill="url(#paint25_linear_2218_4020)"/>
<path d="M21.8404 6.39983H12.5107C11.7589 6.39983 11.1494 5.79036 11.1494 5.03858V2.45024C11.1494 1.69846 11.7589 1.08899 12.5107 1.08899H15.3397C16.8524 1.08899 18.2716 1.72068 19.1356 2.77909C19.3204 3.0062 19.5312 3.26376 19.7561 3.5154C20.7047 4.57234 21.4558 5.32054 22.0504 5.85203C22.2649 6.04356 22.1284 6.39983 21.8404 6.39983Z" fill="url(#paint26_linear_2218_4020)"/>
<path d="M15.8361 1.11311C15.6721 1.09799 15.5066 1.08899 15.3397 1.08899H12.5107C11.7589 1.08899 11.1494 1.69846 11.1494 2.45024V5.03858C11.1494 5.79036 11.7589 6.39983 12.5107 6.39983H15.8361V1.11311Z" fill="url(#paint27_linear_2218_4020)"/>
<path d="M10.3962 1.98655C10.0939 2.72202 9.93359 3.51515 9.93359 4.32585C9.93359 4.8996 9.97859 5.46864 10.0671 6.02826C10.0974 6.21979 9.95054 6.39304 9.75668 6.39304H5.95812C5.70289 6.39304 5.55382 6.10476 5.70289 5.89804C5.76898 5.80593 5.83156 5.7103 5.88992 5.61116C6.79132 4.06879 8.60279 1.90028 10.1231 1.27246C10.3856 1.16404 10.6461 1.44079 10.5244 1.69743C10.4793 1.7927 10.4365 1.8891 10.3962 1.98655Z" fill="url(#paint28_linear_2218_4020)"/>
<path d="M10.3962 1.98655C10.0939 2.72202 9.93359 3.51515 9.93359 4.32585C9.93359 4.8996 9.97859 5.46864 10.0671 6.02826C10.0974 6.21979 9.95054 6.39304 9.75668 6.39304H5.95812C5.70289 6.39304 5.55382 6.10476 5.70289 5.89804C5.76898 5.80593 5.83156 5.7103 5.88992 5.61116C6.79132 4.06879 8.60279 1.90028 10.1231 1.27246C10.3856 1.16404 10.6461 1.44079 10.5244 1.69743C10.4793 1.7927 10.4365 1.8891 10.3962 1.98655Z" fill="url(#paint29_linear_2218_4020)"/>
<path d="M30.0953 6.40015H26.174C26.1732 6.40015 26.1725 6.40015 26.1717 6.40015C26.0269 6.40008 25.8839 6.36858 25.75 6.31367C24.5395 5.81726 23.4412 5.08137 22.5241 4.14839C22.0423 3.65825 21.6073 3.18399 21.3084 2.85007C21.1003 2.61874 20.9041 2.37898 20.708 2.13851C20.5008 1.88489 20.2689 1.64956 20.016 1.43595C19.8756 1.31733 19.9582 1.08875 20.142 1.08875H23.512C23.8692 1.08875 24.2166 1.20617 24.5006 1.42413C25.1791 1.94445 25.6988 2.66374 25.8661 2.85007C26.7436 3.82953 28.6491 5.94664 29.6166 6.19765L30.0953 6.40015Z" fill="url(#paint30_linear_2218_4020)"/>
<path d="M30.0953 6.40015H26.174C26.1732 6.40015 26.1725 6.40015 26.1717 6.40015C26.0269 6.40008 25.8839 6.36858 25.75 6.31367C24.5395 5.81726 23.4412 5.08137 22.5241 4.14839C22.0423 3.65825 21.6073 3.18399 21.3084 2.85007C21.1003 2.61874 20.9041 2.37898 20.708 2.13851C20.5008 1.88489 20.2689 1.64956 20.016 1.43595C19.8756 1.31733 19.9582 1.08875 20.142 1.08875H23.512C23.8692 1.08875 24.2166 1.20617 24.5006 1.42413C25.1791 1.94445 25.6988 2.66374 25.8661 2.85007C26.7436 3.82953 28.6491 5.94664 29.6166 6.19765L30.0953 6.40015Z" fill="url(#paint31_linear_2218_4020)"/>
<path d="M25.8661 2.85007C25.6987 2.66374 25.1791 1.94445 24.5006 1.42413C24.2165 1.20617 23.8692 1.08875 23.512 1.08875H20.1419C19.9581 1.08875 19.8757 1.31733 20.016 1.43595C20.2688 1.64956 20.5007 1.88489 20.7079 2.13851C20.9041 2.37898 21.1003 2.61874 21.3084 2.85007C21.5238 3.09068 21.8105 3.40463 22.1338 3.74445H26.6801C26.3654 3.40688 26.084 3.09335 25.8661 2.85007Z" fill="url(#paint32_linear_2218_4020)"/>
<path d="M35.1638 14.0279H0.836156C0.374344 14.0279 0 13.6536 0 13.1918V12.1965C0 11.7347 0.374344 11.3604 0.836156 11.3604H35.1639C35.6257 11.3604 36.0001 11.7347 36.0001 12.1965V13.1918C36 13.6536 35.6256 14.0279 35.1638 14.0279Z" fill="url(#paint33_linear_2218_4020)"/>
<path d="M35.1641 11.3604H28.7368C29.1986 11.3604 29.573 11.7347 29.573 12.1964V13.1918C29.573 13.6536 29.1986 14.0279 28.7368 14.0279H35.1641C35.6259 14.0279 36.0002 13.6536 36.0002 13.1918V12.1964C36.0002 11.7347 35.6259 11.3604 35.1641 11.3604Z" fill="url(#paint34_linear_2218_4020)"/>
<path d="M35.1641 11.3604H28.7368C29.1986 11.3604 29.573 11.7347 29.573 12.1964V13.1918C29.573 13.6536 29.1986 14.0279 28.7368 14.0279H35.1641C35.6259 14.0279 36.0002 13.6536 36.0002 13.1918V12.1964C36.0002 11.7347 35.6259 11.3604 35.1641 11.3604Z" fill="url(#paint35_linear_2218_4020)"/>
<path d="M35.1638 14.0279H0.836156C0.374344 14.0279 0 13.6536 0 13.1918V12.1965C0 11.7347 0.374344 11.3604 0.836156 11.3604H35.1639C35.6257 11.3604 36.0001 11.7347 36.0001 12.1965V13.1918C36 13.6536 35.6256 14.0279 35.1638 14.0279Z" fill="url(#paint36_linear_2218_4020)"/>
<path d="M7.62061 11.3604H15.836V14.0279H7.62061V11.3604Z" fill="url(#paint37_linear_2218_4020)"/>
<path d="M25.9873 11.3604H34.2027V14.0279H25.9873V11.3604Z" fill="url(#paint38_linear_2218_4020)"/>
<path d="M24.0503 16.6696C26.2055 16.6696 27.9526 14.9224 27.9526 12.7672C27.9526 10.612 26.2055 8.86487 24.0503 8.86487C21.8951 8.86487 20.1479 10.612 20.1479 12.7672C20.1479 14.9224 21.8951 16.6696 24.0503 16.6696Z" fill="url(#paint39_linear_2218_4020)"/>
<path d="M20.1479 12.7672C20.1479 14.9224 21.8951 16.6696 24.0503 16.6696C26.2055 16.6696 27.9526 14.9224 27.9526 12.7672C27.9526 12.3005 27.8704 11.853 27.7201 11.4381H20.3805C20.2301 11.853 20.1479 12.3004 20.1479 12.7672Z" fill="url(#paint40_linear_2218_4020)"/>
<path d="M21.291 15.5266C22.815 17.0505 25.2858 17.0505 26.8098 15.5266C28.3337 14.0026 28.3337 11.5318 26.8098 10.0078C26.4797 9.67778 26.1052 9.41952 25.7055 9.23242L20.5156 14.4223C20.7027 14.822 20.961 15.1965 21.291 15.5266Z" fill="url(#paint41_linear_2218_4020)"/>
<path d="M24.0503 15.2824C25.4394 15.2824 26.5655 14.1563 26.5655 12.7672C26.5655 11.3781 25.4394 10.2521 24.0503 10.2521C22.6612 10.2521 21.5352 11.3781 21.5352 12.7672C21.5352 14.1563 22.6612 15.2824 24.0503 15.2824Z" fill="url(#paint42_linear_2218_4020)"/>
<path d="M24.0505 14.6224C25.0751 14.6224 25.9057 13.7918 25.9057 12.7672C25.9057 11.7426 25.0751 10.912 24.0505 10.912C23.0259 10.912 22.1953 11.7426 22.1953 12.7672C22.1953 13.7918 23.0259 14.6224 24.0505 14.6224Z" fill="url(#paint43_linear_2218_4020)"/>
<path d="M22.1953 12.7672C22.1953 13.7917 23.0259 14.6223 24.0505 14.6223C25.0751 14.6223 25.9057 13.7917 25.9057 12.7672C25.9057 12.5452 25.8666 12.3325 25.7952 12.1353H22.3058C22.2344 12.3325 22.1953 12.5452 22.1953 12.7672Z" fill="url(#paint44_linear_2218_4020)"/>
<path d="M22.7388 14.079C23.4633 14.8035 24.6379 14.8035 25.3624 14.079C26.0869 13.3545 26.0869 12.1798 25.3624 11.4553C25.2055 11.2984 25.0274 11.1756 24.8375 11.0867L22.3701 13.554C22.4591 13.744 22.5818 13.922 22.7388 14.079Z" fill="url(#paint45_linear_2218_4020)"/>
<path d="M5.76562 16.6696C7.92083 16.6696 9.66797 14.9224 9.66797 12.7672C9.66797 10.612 7.92083 8.86487 5.76562 8.86487C3.61042 8.86487 1.86328 10.612 1.86328 12.7672C1.86328 14.9224 3.61042 16.6696 5.76562 16.6696Z" fill="url(#paint46_linear_2218_4020)"/>
<path d="M1.86328 12.7672C1.86328 14.9224 3.61041 16.6696 5.76562 16.6696C7.92084 16.6696 9.66797 14.9224 9.66797 12.7672C9.66797 12.3005 9.58577 11.853 9.43544 11.4381H2.0958C1.94548 11.853 1.86328 12.3004 1.86328 12.7672Z" fill="url(#paint47_linear_2218_4020)"/>
<path d="M3.00636 15.5266C4.53032 17.0505 7.00117 17.0505 8.52512 15.5266C10.0491 14.0026 10.0491 11.5318 8.52512 10.0078C8.19507 9.67778 7.82052 9.41952 7.42086 9.23242L2.23096 14.4223C2.41806 14.822 2.67632 15.1965 3.00636 15.5266Z" fill="url(#paint48_linear_2218_4020)"/>
<path d="M5.76564 15.2824C7.15471 15.2824 8.28079 14.1563 8.28079 12.7672C8.28079 11.3781 7.15471 10.2521 5.76564 10.2521C4.37656 10.2521 3.25049 11.3781 3.25049 12.7672C3.25049 14.1563 4.37656 15.2824 5.76564 15.2824Z" fill="url(#paint49_linear_2218_4020)"/>
<path d="M5.76535 14.6224C6.78995 14.6224 7.62055 13.7918 7.62055 12.7672C7.62055 11.7426 6.78995 10.912 5.76535 10.912C4.74076 10.912 3.91016 11.7426 3.91016 12.7672C3.91016 13.7918 4.74076 14.6224 5.76535 14.6224Z" fill="url(#paint50_linear_2218_4020)"/>
<path d="M3.91016 12.7672C3.91016 13.7917 4.74076 14.6223 5.76535 14.6223C6.78995 14.6223 7.62055 13.7917 7.62055 12.7672C7.62055 12.5452 7.58145 12.3325 7.51002 12.1353H4.02076C3.94925 12.3325 3.91016 12.5452 3.91016 12.7672Z" fill="url(#paint51_linear_2218_4020)"/>
<path d="M4.45361 14.079C5.17811 14.8035 6.35275 14.8035 7.07725 14.079C7.80175 13.3545 7.80175 12.1798 7.07725 11.4553C6.92031 11.2984 6.74228 11.1756 6.5523 11.0867L4.08496 13.554C4.17391 13.744 4.29667 13.922 4.45361 14.079Z" fill="url(#paint52_linear_2218_4020)"/>
<path d="M22.5319 4.64355L21.3008 7.23513L27.1518 13.0862H30.9745L22.5319 4.64355Z" fill="url(#paint53_linear_2218_4020)"/>
<path d="M21.8276 4.34741C21.401 4.34741 21.0552 4.69321 21.0552 5.11987V6.6704C21.0552 7.09698 21.401 7.44285 21.8276 7.44285C22.3723 7.44285 22.8138 7.00129 22.8138 6.45665V5.33369C22.8138 4.78898 22.3723 4.34741 21.8276 4.34741Z" fill="url(#paint54_linear_2218_4020)"/>
<path d="M21.0552 5.67004V6.67045C21.0552 7.09704 21.401 7.4429 21.8276 7.4429C22.3723 7.4429 22.8138 7.00134 22.8138 6.4567V5.67004H21.0552Z" fill="url(#paint55_linear_2218_4020)"/>
<path d="M21.8277 4.34741C21.7312 4.34741 21.6393 4.3659 21.5542 4.39818V7.39208C21.6393 7.42436 21.7312 7.44285 21.8277 7.44285C22.3724 7.44285 22.8139 7.00129 22.8139 6.45665V5.33369C22.8139 4.78898 22.3724 4.34741 21.8277 4.34741Z" fill="url(#paint56_linear_2218_4020)"/>
<defs>
<linearGradient id="paint0_linear_2218_4020" x1="33.3478" y1="9.88477" x2="35.1852" y2="10.4936" gradientUnits="userSpaceOnUse">
<stop stop-color="#FEF0AE"/>
<stop offset="1" stop-color="#FAC600"/>
</linearGradient>
<linearGradient id="paint1_linear_2218_4020" x1="34.3877" y1="10.1649" x2="35.1703" y2="11.3313" gradientUnits="userSpaceOnUse">
<stop stop-color="#FE9738" stop-opacity="0"/>
<stop offset="1" stop-color="#FE9738"/>
</linearGradient>
<linearGradient id="paint2_linear_2218_4020" x1="34.2791" y1="10.1772" x2="35.4289" y2="10.2717" gradientUnits="userSpaceOnUse">
<stop stop-color="#FE9738" stop-opacity="0"/>
<stop offset="1" stop-color="#FE9738"/>
</linearGradient>
<linearGradient id="paint3_linear_2218_4020" x1="9.99884" y1="11.1929" x2="13.2329" y2="14.427" gradientUnits="userSpaceOnUse">
<stop stop-color="#5A5A5A"/>
<stop offset="1" stop-color="#444444"/>
</linearGradient>
<linearGradient id="paint4_linear_2218_4020" x1="11.3734" y1="12.6125" x2="11.3734" y2="16.7975" gradientUnits="userSpaceOnUse">
<stop stop-color="#433F43" stop-opacity="0"/>
<stop offset="1" stop-color="#1A1A1A"/>
</linearGradient>
<linearGradient id="paint5_linear_2218_4020" x1="11.4073" y1="12.6019" x2="14.5217" y2="15.7164" gradientUnits="userSpaceOnUse">
<stop stop-color="#433F43" stop-opacity="0"/>
<stop offset="1" stop-color="#1A1A1A"/>
</linearGradient>
<linearGradient id="paint6_linear_2218_4020" x1="14.2536" y1="13.1662" x2="10.3439" y2="12.431" gradientUnits="userSpaceOnUse">
<stop stop-color="#433F43" stop-opacity="0"/>
<stop offset="1" stop-color="#1A1A1A"/>
</linearGradient>
<linearGradient id="paint7_linear_2218_4020" x1="13.8276" y1="13.2463" x2="9.53232" y2="12.0583" gradientUnits="userSpaceOnUse">
<stop stop-color="#433F43" stop-opacity="0"/>
<stop offset="1" stop-color="#1A1A1A"/>
</linearGradient>
<linearGradient id="paint8_linear_2218_4020" x1="28.2835" y1="11.1929" x2="31.5175" y2="14.427" gradientUnits="userSpaceOnUse">
<stop stop-color="#5A5A5A"/>
<stop offset="1" stop-color="#444444"/>
</linearGradient>
<linearGradient id="paint9_linear_2218_4020" x1="29.6581" y1="12.6125" x2="29.6581" y2="16.7975" gradientUnits="userSpaceOnUse">
<stop stop-color="#433F43" stop-opacity="0"/>
<stop offset="1" stop-color="#1A1A1A"/>
</linearGradient>
<linearGradient id="paint10_linear_2218_4020" x1="29.6892" y1="12.6019" x2="32.8036" y2="15.7164" gradientUnits="userSpaceOnUse">
<stop stop-color="#433F43" stop-opacity="0"/>
<stop offset="1" stop-color="#1A1A1A"/>
</linearGradient>
<linearGradient id="paint11_linear_2218_4020" x1="32.5383" y1="13.1662" x2="28.6286" y2="12.431" gradientUnits="userSpaceOnUse">
<stop stop-color="#433F43" stop-opacity="0"/>
<stop offset="1" stop-color="#1A1A1A"/>
</linearGradient>
<linearGradient id="paint12_linear_2218_4020" x1="32.1123" y1="13.2463" x2="27.817" y2="12.0583" gradientUnits="userSpaceOnUse">
<stop stop-color="#433F43" stop-opacity="0"/>
<stop offset="1" stop-color="#1A1A1A"/>
</linearGradient>
<linearGradient id="paint13_linear_2218_4020" x1="15.1449" y1="2.28713" x2="17.8379" y2="13.5755" gradientUnits="userSpaceOnUse">
<stop stop-color="#FFA1AE"/>
<stop offset="1" stop-color="#FF4565"/>
</linearGradient>
<linearGradient id="paint14_linear_2218_4020" x1="29.5754" y1="-10.0447" x2="22.2825" y2="17.9996" gradientUnits="userSpaceOnUse">
<stop stop-color="#FE0364" stop-opacity="0"/>
<stop offset="0.2343" stop-color="#F90362" stop-opacity="0.234"/>
<stop offset="0.5173" stop-color="#EA035B" stop-opacity="0.517"/>
<stop offset="0.8243" stop-color="#D20250" stop-opacity="0.824"/>
<stop offset="1" stop-color="#C00148"/>
</linearGradient>
<linearGradient id="paint15_linear_2218_4020" x1="31.8846" y1="8.79647" x2="31.8846" y2="7.97508" gradientUnits="userSpaceOnUse">
<stop stop-color="#FFA1AE"/>
<stop offset="1" stop-color="#FF4565"/>
</linearGradient>
<linearGradient id="paint16_linear_2218_4020" x1="32.2688" y1="9.83041" x2="32.2688" y2="9.00902" gradientUnits="userSpaceOnUse">
<stop stop-color="#FFA1AE"/>
<stop offset="1" stop-color="#FF4565"/>
</linearGradient>
<linearGradient id="paint17_linear_2218_4020" x1="32.6532" y1="10.8643" x2="32.6532" y2="10.043" gradientUnits="userSpaceOnUse">
<stop stop-color="#FFA1AE"/>
<stop offset="1" stop-color="#FF4565"/>
</linearGradient>
<linearGradient id="paint18_linear_2218_4020" x1="29.6356" y1="6.77007" x2="32.267" y2="5.71749" gradientUnits="userSpaceOnUse">
<stop stop-color="#FE0364" stop-opacity="0"/>
<stop offset="0.2343" stop-color="#F90362" stop-opacity="0.234"/>
<stop offset="0.5173" stop-color="#EA035B" stop-opacity="0.517"/>
<stop offset="0.8243" stop-color="#D20250" stop-opacity="0.824"/>
<stop offset="1" stop-color="#C00148"/>
</linearGradient>
<linearGradient id="paint19_linear_2218_4020" x1="17.7212" y1="8.61267" x2="17.7212" y2="11.9119" gradientUnits="userSpaceOnUse">
<stop stop-color="#FE0364" stop-opacity="0"/>
<stop offset="0.2343" stop-color="#F90362" stop-opacity="0.234"/>
<stop offset="0.5173" stop-color="#EA035B" stop-opacity="0.517"/>
<stop offset="0.8243" stop-color="#D20250" stop-opacity="0.824"/>
<stop offset="1" stop-color="#C00148"/>
</linearGradient>
<linearGradient id="paint20_linear_2218_4020" x1="13.6928" y1="8.14488" x2="13.6928" y2="6.87328" gradientUnits="userSpaceOnUse">
<stop stop-color="#FFA1AE"/>
<stop offset="1" stop-color="#FF4565"/>
</linearGradient>
<linearGradient id="paint21_linear_2218_4020" x1="16.4233" y1="9.92686" x2="8.37012" y2="13.7697" gradientUnits="userSpaceOnUse">
<stop stop-color="#FE0364" stop-opacity="0"/>
<stop offset="0.2343" stop-color="#F90362" stop-opacity="0.234"/>
<stop offset="0.5173" stop-color="#EA035B" stop-opacity="0.517"/>
<stop offset="0.8243" stop-color="#D20250" stop-opacity="0.824"/>
<stop offset="1" stop-color="#C00148"/>
</linearGradient>
<linearGradient id="paint22_linear_2218_4020" x1="28.5606" y1="9.88552" x2="30.3981" y2="10.4943" gradientUnits="userSpaceOnUse">
<stop stop-color="#FEF0AE"/>
<stop offset="1" stop-color="#FAC600"/>
</linearGradient>
<linearGradient id="paint23_linear_2218_4020" x1="29.6005" y1="10.1657" x2="30.3831" y2="11.332" gradientUnits="userSpaceOnUse">
<stop stop-color="#FE9738" stop-opacity="0"/>
<stop offset="1" stop-color="#FE9738"/>
</linearGradient>
<linearGradient id="paint24_linear_2218_4020" x1="29.492" y1="10.178" x2="30.6417" y2="10.2725" gradientUnits="userSpaceOnUse">
<stop stop-color="#FE9738" stop-opacity="0"/>
<stop offset="1" stop-color="#FE9738"/>
</linearGradient>
<linearGradient id="paint25_linear_2218_4020" x1="14.5283" y1="0.866591" x2="17.3503" y2="7.25139" gradientUnits="userSpaceOnUse">
<stop stop-color="#B3DAFE"/>
<stop offset="1" stop-color="#0182FC"/>
</linearGradient>
<linearGradient id="paint26_linear_2218_4020" x1="16.6524" y1="2.8449" x2="16.6524" y2="0.652349" gradientUnits="userSpaceOnUse">
<stop stop-color="#314DC9" stop-opacity="0"/>
<stop offset="0.2761" stop-color="#304BC4" stop-opacity="0.276"/>
<stop offset="0.5628" stop-color="#2B45B8" stop-opacity="0.563"/>
<stop offset="0.8535" stop-color="#243BA3" stop-opacity="0.854"/>
<stop offset="1" stop-color="#1F3596"/>
</linearGradient>
<linearGradient id="paint27_linear_2218_4020" x1="12.6878" y1="3.74448" x2="10.8094" y2="3.74448" gradientUnits="userSpaceOnUse">
<stop stop-color="#314DC9" stop-opacity="0"/>
<stop offset="0.2761" stop-color="#304BC4" stop-opacity="0.276"/>
<stop offset="0.5628" stop-color="#2B45B8" stop-opacity="0.563"/>
<stop offset="0.8535" stop-color="#243BA3" stop-opacity="0.854"/>
<stop offset="1" stop-color="#1F3596"/>
</linearGradient>
<linearGradient id="paint28_linear_2218_4020" x1="7.82647" y1="3.67328" x2="9.54736" y2="4.60893" gradientUnits="userSpaceOnUse">
<stop stop-color="#B3DAFE"/>
<stop offset="1" stop-color="#0182FC"/>
</linearGradient>
<linearGradient id="paint29_linear_2218_4020" x1="8.4751" y1="4.10605" x2="7.10506" y2="3.07021" gradientUnits="userSpaceOnUse">
<stop stop-color="#314DC9" stop-opacity="0"/>
<stop offset="0.2761" stop-color="#304BC4" stop-opacity="0.276"/>
<stop offset="0.5628" stop-color="#2B45B8" stop-opacity="0.563"/>
<stop offset="0.8535" stop-color="#243BA3" stop-opacity="0.854"/>
<stop offset="1" stop-color="#1F3596"/>
</linearGradient>
<linearGradient id="paint30_linear_2218_4020" x1="22.4716" y1="0.560206" x2="27.6612" y2="7.31182" gradientUnits="userSpaceOnUse">
<stop stop-color="#B3DAFE"/>
<stop offset="1" stop-color="#0182FC"/>
</linearGradient>
<linearGradient id="paint31_linear_2218_4020" x1="24.519" y1="4.23242" x2="22.8147" y2="5.71109" gradientUnits="userSpaceOnUse">
<stop stop-color="#314DC9" stop-opacity="0"/>
<stop offset="0.2761" stop-color="#304BC4" stop-opacity="0.276"/>
<stop offset="0.5628" stop-color="#2B45B8" stop-opacity="0.563"/>
<stop offset="0.8535" stop-color="#243BA3" stop-opacity="0.854"/>
<stop offset="1" stop-color="#1F3596"/>
</linearGradient>
<linearGradient id="paint32_linear_2218_4020" x1="23.3127" y1="2.53099" x2="23.3127" y2="0.572159" gradientUnits="userSpaceOnUse">
<stop stop-color="#314DC9" stop-opacity="0"/>
<stop offset="0.2761" stop-color="#304BC4" stop-opacity="0.276"/>
<stop offset="0.5628" stop-color="#2B45B8" stop-opacity="0.563"/>
<stop offset="0.8535" stop-color="#243BA3" stop-opacity="0.854"/>
<stop offset="1" stop-color="#1F3596"/>
</linearGradient>
<linearGradient id="paint33_linear_2218_4020" x1="18" y1="11.7537" x2="18" y2="13.8685" gradientUnits="userSpaceOnUse">
<stop stop-color="#F5FBFF"/>
<stop offset="1" stop-color="#DBD5EF"/>
</linearGradient>
<linearGradient id="paint34_linear_2218_4020" x1="32.3685" y1="4.4357" x2="32.3685" y2="15.0004" gradientUnits="userSpaceOnUse">
<stop stop-color="#DBD5EF" stop-opacity="0"/>
<stop offset="0.2853" stop-color="#D9D2EE" stop-opacity="0.285"/>
<stop offset="0.4739" stop-color="#D4C9E9" stop-opacity="0.474"/>
<stop offset="0.6346" stop-color="#CBBAE2" stop-opacity="0.635"/>
<stop offset="0.7795" stop-color="#BFA5D7" stop-opacity="0.78"/>
<stop offset="0.9126" stop-color="#AF8ACA" stop-opacity="0.913"/>
<stop offset="1" stop-color="#A274BF"/>
</linearGradient>
<linearGradient id="paint35_linear_2218_4020" x1="33.5922" y1="12.6942" x2="36.1153" y2="12.6942" gradientUnits="userSpaceOnUse">
<stop stop-color="#DBD5EF" stop-opacity="0"/>
<stop offset="0.2853" stop-color="#D9D2EE" stop-opacity="0.285"/>
<stop offset="0.4739" stop-color="#D4C9E9" stop-opacity="0.474"/>
<stop offset="0.6346" stop-color="#CBBAE2" stop-opacity="0.635"/>
<stop offset="0.7795" stop-color="#BFA5D7" stop-opacity="0.78"/>
<stop offset="0.9126" stop-color="#AF8ACA" stop-opacity="0.913"/>
<stop offset="1" stop-color="#A274BF"/>
</linearGradient>
<linearGradient id="paint36_linear_2218_4020" x1="18" y1="12.1547" x2="18" y2="13.9704" gradientUnits="userSpaceOnUse">
<stop stop-color="#DBD5EF" stop-opacity="0"/>
<stop offset="0.2853" stop-color="#D9D2EE" stop-opacity="0.285"/>
<stop offset="0.4739" stop-color="#D4C9E9" stop-opacity="0.474"/>
<stop offset="0.6346" stop-color="#CBBAE2" stop-opacity="0.635"/>
<stop offset="0.7795" stop-color="#BFA5D7" stop-opacity="0.78"/>
<stop offset="0.9126" stop-color="#AF8ACA" stop-opacity="0.913"/>
<stop offset="1" stop-color="#A274BF"/>
</linearGradient>
<linearGradient id="paint37_linear_2218_4020" x1="12.5816" y1="12.6942" x2="9.33848" y2="12.6942" gradientUnits="userSpaceOnUse">
<stop stop-color="#DBD5EF" stop-opacity="0"/>
<stop offset="0.2853" stop-color="#D9D2EE" stop-opacity="0.285"/>
<stop offset="0.4739" stop-color="#D4C9E9" stop-opacity="0.474"/>
<stop offset="0.6346" stop-color="#CBBAE2" stop-opacity="0.635"/>
<stop offset="0.7795" stop-color="#BFA5D7" stop-opacity="0.78"/>
<stop offset="0.9126" stop-color="#AF8ACA" stop-opacity="0.913"/>
<stop offset="1" stop-color="#A274BF"/>
</linearGradient>
<linearGradient id="paint38_linear_2218_4020" x1="30.9483" y1="12.6942" x2="27.7052" y2="12.6942" gradientUnits="userSpaceOnUse">
<stop stop-color="#DBD5EF" stop-opacity="0"/>
<stop offset="0.2853" stop-color="#D9D2EE" stop-opacity="0.285"/>
<stop offset="0.4739" stop-color="#D4C9E9" stop-opacity="0.474"/>
<stop offset="0.6346" stop-color="#CBBAE2" stop-opacity="0.635"/>
<stop offset="0.7795" stop-color="#BFA5D7" stop-opacity="0.78"/>
<stop offset="0.9126" stop-color="#AF8ACA" stop-opacity="0.913"/>
<stop offset="1" stop-color="#A274BF"/>
</linearGradient>
<linearGradient id="paint39_linear_2218_4020" x1="22.5424" y1="11.2594" x2="26.09" y2="14.8068" gradientUnits="userSpaceOnUse">
<stop stop-color="#5A5A5A"/>
<stop offset="1" stop-color="#444444"/>
</linearGradient>
<linearGradient id="paint40_linear_2218_4020" x1="24.0503" y1="12.8166" x2="24.0503" y2="17.4072" gradientUnits="userSpaceOnUse">
<stop stop-color="#433F43" stop-opacity="0"/>
<stop offset="1" stop-color="#1A1A1A"/>
</linearGradient>
<linearGradient id="paint41_linear_2218_4020" x1="24.0856" y1="12.8046" x2="27.5019" y2="16.2209" gradientUnits="userSpaceOnUse">
<stop stop-color="#433F43" stop-opacity="0"/>
<stop offset="1" stop-color="#1A1A1A"/>
</linearGradient>
<linearGradient id="paint42_linear_2218_4020" x1="24.9879" y1="13.7048" x2="22.0559" y2="10.7728" gradientUnits="userSpaceOnUse">
<stop stop-color="#433F43" stop-opacity="0"/>
<stop offset="1" stop-color="#1A1A1A"/>
</linearGradient>
<linearGradient id="paint43_linear_2218_4020" x1="23.3337" y1="12.0503" x2="25.0202" y2="13.7369" gradientUnits="userSpaceOnUse">
<stop stop-color="#F5FBFF"/>
<stop offset="1" stop-color="#DBD5EF"/>
</linearGradient>
<linearGradient id="paint44_linear_2218_4020" x1="24.0505" y1="12.7906" x2="24.0505" y2="14.973" gradientUnits="userSpaceOnUse">
<stop stop-color="#DBD5EF" stop-opacity="0"/>
<stop offset="0.2853" stop-color="#D9D2EE" stop-opacity="0.285"/>
<stop offset="0.4739" stop-color="#D4C9E9" stop-opacity="0.474"/>
<stop offset="0.6346" stop-color="#CBBAE2" stop-opacity="0.635"/>
<stop offset="0.7795" stop-color="#BFA5D7" stop-opacity="0.78"/>
<stop offset="0.9126" stop-color="#AF8ACA" stop-opacity="0.913"/>
<stop offset="1" stop-color="#A274BF"/>
</linearGradient>
<linearGradient id="paint45_linear_2218_4020" x1="24.0674" y1="12.7862" x2="25.6916" y2="14.4104" gradientUnits="userSpaceOnUse">
<stop stop-color="#DBD5EF" stop-opacity="0"/>
<stop offset="0.2853" stop-color="#D9D2EE" stop-opacity="0.285"/>
<stop offset="0.4739" stop-color="#D4C9E9" stop-opacity="0.474"/>
<stop offset="0.6346" stop-color="#CBBAE2" stop-opacity="0.635"/>
<stop offset="0.7795" stop-color="#BFA5D7" stop-opacity="0.78"/>
<stop offset="0.9126" stop-color="#AF8ACA" stop-opacity="0.913"/>
<stop offset="1" stop-color="#A274BF"/>
</linearGradient>
<linearGradient id="paint46_linear_2218_4020" x1="4.25777" y1="11.2594" x2="7.80532" y2="14.8068" gradientUnits="userSpaceOnUse">
<stop stop-color="#5A5A5A"/>
<stop offset="1" stop-color="#444444"/>
</linearGradient>
<linearGradient id="paint47_linear_2218_4020" x1="5.76562" y1="12.8166" x2="5.76562" y2="17.4072" gradientUnits="userSpaceOnUse">
<stop stop-color="#433F43" stop-opacity="0"/>
<stop offset="1" stop-color="#1A1A1A"/>
</linearGradient>
<linearGradient id="paint48_linear_2218_4020" x1="5.80366" y1="12.8046" x2="9.21999" y2="16.2209" gradientUnits="userSpaceOnUse">
<stop stop-color="#433F43" stop-opacity="0"/>
<stop offset="1" stop-color="#1A1A1A"/>
</linearGradient>
<linearGradient id="paint49_linear_2218_4020" x1="6.70318" y1="13.7048" x2="3.77122" y2="10.7728" gradientUnits="userSpaceOnUse">
<stop stop-color="#433F43" stop-opacity="0"/>
<stop offset="1" stop-color="#1A1A1A"/>
</linearGradient>
<linearGradient id="paint50_linear_2218_4020" x1="5.04852" y1="12.0503" x2="6.73503" y2="13.7369" gradientUnits="userSpaceOnUse">
<stop stop-color="#F5FBFF"/>
<stop offset="1" stop-color="#DBD5EF"/>
</linearGradient>
<linearGradient id="paint51_linear_2218_4020" x1="5.76542" y1="12.7906" x2="5.76542" y2="14.973" gradientUnits="userSpaceOnUse">
<stop stop-color="#DBD5EF" stop-opacity="0"/>
<stop offset="0.2853" stop-color="#D9D2EE" stop-opacity="0.285"/>
<stop offset="0.4739" stop-color="#D4C9E9" stop-opacity="0.474"/>
<stop offset="0.6346" stop-color="#CBBAE2" stop-opacity="0.635"/>
<stop offset="0.7795" stop-color="#BFA5D7" stop-opacity="0.78"/>
<stop offset="0.9126" stop-color="#AF8ACA" stop-opacity="0.913"/>
<stop offset="1" stop-color="#A274BF"/>
</linearGradient>
<linearGradient id="paint52_linear_2218_4020" x1="5.78502" y1="12.7862" x2="7.40918" y2="14.4104" gradientUnits="userSpaceOnUse">
<stop stop-color="#DBD5EF" stop-opacity="0"/>
<stop offset="0.2853" stop-color="#D9D2EE" stop-opacity="0.285"/>
<stop offset="0.4739" stop-color="#D4C9E9" stop-opacity="0.474"/>
<stop offset="0.6346" stop-color="#CBBAE2" stop-opacity="0.635"/>
<stop offset="0.7795" stop-color="#BFA5D7" stop-opacity="0.78"/>
<stop offset="0.9126" stop-color="#AF8ACA" stop-opacity="0.913"/>
<stop offset="1" stop-color="#A274BF"/>
</linearGradient>
<linearGradient id="paint53_linear_2218_4020" x1="23.9571" y1="8.44641" x2="21.4843" y2="7.27683" gradientUnits="userSpaceOnUse">
<stop stop-color="#FE0364" stop-opacity="0"/>
<stop offset="0.2343" stop-color="#F90362" stop-opacity="0.234"/>
<stop offset="0.5173" stop-color="#EA035B" stop-opacity="0.517"/>
<stop offset="0.8243" stop-color="#D20250" stop-opacity="0.824"/>
<stop offset="1" stop-color="#C00148"/>
</linearGradient>
<linearGradient id="paint54_linear_2218_4020" x1="21.2774" y1="5.48633" x2="21.9457" y2="5.95412" gradientUnits="userSpaceOnUse">
<stop stop-color="#5A5A5A"/>
<stop offset="1" stop-color="#444444"/>
</linearGradient>
<linearGradient id="paint55_linear_2218_4020" x1="21.9345" y1="6.22706" x2="21.9345" y2="7.16102" gradientUnits="userSpaceOnUse">
<stop stop-color="#433F43" stop-opacity="0"/>
<stop offset="1" stop-color="#1A1A1A"/>
</linearGradient>
<linearGradient id="paint56_linear_2218_4020" x1="21.8717" y1="5.89513" x2="22.6909" y2="5.89513" gradientUnits="userSpaceOnUse">
<stop stop-color="#433F43" stop-opacity="0"/>
<stop offset="1" stop-color="#1A1A1A"/>
</linearGradient>
</defs>
</svg>
